<?xml version="1.0" standalone="no"?>
<!DOCTYPE svg PUBLIC "-//W3C//DTD SVG 20010904//EN"
 "http://www.w3.org/TR/2001/REC-SVG-20010904/DTD/svg10.dtd">
<svg version="1.0" xmlns="http://www.w3.org/2000/svg"
 width="750.000000pt" height="750.000000pt" viewBox="0 0 750.000000 750.000000"
 preserveAspectRatio="xMidYMid meet">
<metadata>
Created by potrace 1.14, written by Peter Selinger 2001-2017
</metadata>
<g transform="translate(0.000000,750.000000) scale(0.100000,-0.100000)"
fill="#000000" stroke="none">
<path d="M1705 6793 c-19 -21 -43 -47 -53 -58 -16 -19 -189 -250 -256 -343
-17 -24 -40 -55 -52 -70 -35 -47 -100 -156 -106 -180 -5 -19 9 -34 91 -100 53
-42 112 -88 130 -102 27 -20 179 -134 236 -177 6 -5 55 -42 110 -83 55 -41
102 -77 105 -80 3 -3 21 -17 40 -30 19 -13 41 -30 48 -37 7 -7 16 -13 20 -13
4 -1 27 -18 50 -39 l44 -38 -49 -29 c-88 -52 -624 -314 -642 -314 -6 0 -11 -4
-11 -8 0 -4 -30 -22 -67 -40 -38 -18 -79 -41 -92 -51 l-24 -18 38 -79 c20 -44
49 -104 63 -134 14 -30 74 -155 134 -277 59 -122 108 -224 108 -226 0 -3 11
-25 25 -50 l25 -45 173 85 c94 47 264 130 377 185 513 251 923 460 953 486 9
8 17 12 17 9 0 -4 25 9 55 28 30 19 59 35 65 35 5 0 10 4 10 9 0 5 8 12 19 16
75 23 177 230 174 350 -2 59 -36 165 -70 216 -28 41 -97 114 -134 140 -19 13
-38 28 -44 35 -5 6 -39 33 -75 60 -36 27 -67 52 -70 55 -3 3 -30 23 -60 44
-30 21 -60 43 -66 49 -7 6 -22 19 -35 28 -13 9 -87 63 -164 120 -77 57 -201
149 -275 203 -74 54 -139 103 -145 108 -41 34 -438 317 -445 317 -6 0 -10 4
-10 8 0 5 -10 14 -22 21 -13 6 -36 20 -53 30 -42 27 -51 26 -90 -16z"/>
<path d="M5348 6825 c-2 -2 -23 -6 -47 -9 -46 -6 -126 -40 -149 -63 -7 -7 -17
-13 -21 -13 -17 0 -151 -143 -199 -212 -28 -43 -52 -80 -52 -82 0 -3 -11 -22
-25 -42 l-25 -37 0 -1018 c0 -651 3 -1019 10 -1019 5 0 24 8 42 18 62 34 257
93 352 107 17 2 49 7 71 10 46 8 213 8 265 1 73 -9 200 -31 245 -41 11 -2 23
-5 27 -5 24 -3 115 -34 126 -42 6 -6 12 -8 12 -5 0 4 21 -5 46 -18 79 -42 79
-42 83 98 13 442 -4 1759 -24 1917 -18 137 -162 314 -316 388 -113 55 -181 70
-310 70 -59 0 -109 -2 -111 -3z"/>
<path d="M5326 4038 c-84 -18 -209 -107 -286 -204 -60 -75 -115 -179 -125
-234 -14 -78 -16 -97 -30 -395 -17 -345 -25 -385 -111 -560 -81 -164 -195
-292 -370 -413 -39 -26 -205 -112 -228 -117 -6 -1 -24 -8 -41 -14 -49 -21
-224 -63 -234 -56 -5 3 -12 1 -15 -4 -6 -10 -314 -8 -358 3 -34 7 -76 16 -103
21 -43 8 -244 85 -251 96 -3 5 -12 9 -20 9 -8 0 -20 5 -27 10 -7 6 -41 29 -77
51 -169 107 -311 262 -396 436 -25 51 -47 98 -48 105 -2 7 -6 20 -9 28 -3 8
-11 35 -17 60 -21 88 -62 161 -130 231 -23 24 -97 79 -106 79 -4 0 -15 6 -23
14 -26 22 -157 71 -216 81 -11 2 -20 4 -20 5 0 4 -76 10 -138 11 -185 2 -321
-47 -451 -161 -45 -40 -173 -169 -171 -172 2 -2 6 -41 9 -88 15 -196 35 -302
84 -455 62 -189 187 -440 299 -596 18 -26 33 -49 33 -53 0 -3 8 -15 18 -25 9
-11 22 -26 27 -33 123 -163 249 -290 432 -438 7 -6 16 -10 22 -10 5 0 11 -4
13 -8 3 -7 95 -72 103 -72 2 0 36 -19 77 -43 64 -37 178 -95 313 -158 164 -76
398 -147 550 -166 119 -15 773 -7 865 11 14 2 43 7 65 10 22 2 53 9 68 15 15
6 27 9 27 6 0 -2 23 3 52 11 28 9 59 17 67 19 61 13 399 159 413 180 4 5 8 7
8 3 0 -4 21 5 48 20 26 16 54 31 62 35 51 25 210 132 251 170 10 9 22 17 25
17 3 0 11 6 18 13 8 6 39 35 71 62 96 84 188 179 260 268 17 21 39 48 49 60
70 83 225 345 278 472 9 22 24 58 33 80 36 87 90 262 111 360 14 63 26 125 30
160 3 22 7 51 10 65 25 147 24 522 -2 705 -8 53 -53 196 -68 215 -7 8 -17 26
-24 40 -21 42 -94 115 -152 152 -56 36 -121 62 -195 80 -52 12 -299 17 -349 6z"/>
</g>
</svg>
